<svg width="17" height="16" viewBox="0 0 17 16" fill="none" xmlns="http://www.w3.org/2000/svg">
<g clip-path="url(#clip0_6_674)">
<g clip-path="url(#clip1_6_674)">
<path d="M7.79688 0.178101C8.23125 0.0218506 8.70625 0.0218506 9.14375 0.178101L15.1438 2.32185C15.9375 2.60623 16.4688 3.35935 16.4688 4.20623V11.7937C16.4688 12.6375 15.9375 13.3937 15.1406 13.6781L9.14062 15.8218C8.70625 15.9781 8.23125 15.9781 7.79375 15.8218L1.79375 13.6781C1 13.3937 0.46875 12.6406 0.46875 11.7937V4.20623C0.46875 3.36248 1 2.60623 1.79688 2.32185L7.79688 0.178101ZM8.46875 2.06248L3.04063 3.99998L8.46875 5.93748L13.8969 3.99998L8.46875 2.06248ZM9.46875 13.5812L14.4688 11.7969V5.92185L9.46875 7.70623V13.5812Z" fill="white"/>
</g>
</g>
<defs>
<clipPath id="clip0_6_674">
<rect width="16" height="16" fill="white" transform="translate(0.46875)"/>
</clipPath>
<clipPath id="clip1_6_674">
<path d="M0.46875 0H16.4688V16H0.46875V0Z" fill="white"/>
</clipPath>
</defs>
</svg>
