<svg width="24" height="24" viewBox="0 0 24 24" fill="none" xmlns="http://www.w3.org/2000/svg">
<g clip-path="url(#clip0_6_527)">
<g clip-path="url(#clip1_6_527)">
<path d="M10.9922 0.267187C11.6438 0.0328121 12.3563 0.0328121 13.0125 0.267187L22.0125 3.48281C23.2031 3.90937 24 5.03906 24 6.30937V17.6906C24 18.9562 23.2031 20.0906 22.0078 20.5172L13.0078 23.7328C12.3562 23.9672 11.6437 23.9672 10.9875 23.7328L1.9875 20.5172C0.796875 20.0906 0 18.9609 0 17.6906V6.30937C0 5.04375 0.796875 3.90937 1.99219 3.48281L10.9922 0.267187ZM12 3.09375L3.85781 6L12 8.90625L20.1422 6L12 3.09375ZM13.5 20.3719L21 17.6953V8.88281L13.5 11.5594V20.3719Z" fill="#8B5CF6"/>
</g>
</g>
<defs>
<clipPath id="clip0_6_527">
<rect width="24" height="24" fill="white"/>
</clipPath>
<clipPath id="clip1_6_527">
<path d="M0 0H24V24H0V0Z" fill="white"/>
</clipPath>
</defs>
</svg>
